<svg xmlns="http://www.w3.org/2000/svg" viewBox="0 0 235.73 161.21"><g id="Laag_2" data-name="Laag 2"><g id="Laag_1-2" data-name="Laag 1"><g id="XFXhba.tif"><path d="M235.73,43.17c-2.8,2.14-6.1,3.14-9.39,4.24Q175.75,64.26,125.18,81.22c-3.25,1.09-6.45,1.66-9.75.56Q87.77,72.55,60.14,63.24a15.86,15.86,0,0,1-1.93-1.18c9.17-3.7,17.67-7.27,26.29-10.58C95.67,47.2,106.92,43.13,118.13,39c.78-.29,1.56-.59,2.32-.93,3.1-1.36,5-3.53,3.76-7s-4-4.16-7.33-3.1c-2.53.81-5,1.69-7.54,2.58-19.28,6.81-38.18,14.6-57,22.59-14.86,6.31-18.17,19-18.84,30.85-.12,2.11,1.12,3.73,2.5,5.26,3.71,4.12,4.21,8.95,1.09,13.27-2.74,3.78-3,7.52-2.45,11.72.47,4,.77,7.92,1.15,11.88a1.68,1.68,0,0,0,.11,2c-.21,4.13-.16,8.29-.68,12.39-1,7.64-5,13.61-11,18.26-3.63,2.79-7.46,3.3-11.62,1.08C8.82,157.8,4.94,156,1.09,154c-2.77-3.06.44-4.46,1.92-6,9.78-10.09,16.09-21.87,18.26-35.84.42-2.65.19-4.55-2-6.61-5.93-5.6-5.93-12.24-.15-17.88a10,10,0,0,0,3.12-6.48c1-8.47,2.75-16.8,7.73-24,2.05-2.93,1.06-3.78-1.83-4.67-6-1.85-12-4-18-6-2.8-.94-6.14-1.4-6.28-5.33C3.76,37,7.39,36.47,10.3,35.5q52-17.33,104-34.63A16,16,0,0,1,125,1q52,17.42,104,34.64a13.62,13.62,0,0,1,6.68,4.56Z"/><path d="M119.66,133.34c-18.4-.22-36.51-2.19-53.76-9.17a48,48,0,0,1-14.1-8.35c-1.61-1.42-1.86-2.57-.72-4.64,5.4-9.91,4.42-16.34-3.38-24.77-1.62-1.75-2-12.19-.4-13.73,1.4-1.34,2.79-.08,4.11.35C71,79.53,90.58,85.88,110.05,92.66a27.19,27.19,0,0,0,18.88,0c19.93-7,40-13.46,60-20.24,3.29-1.12,4.84-.93,4.73,3.18-.22,8.65-.18,17.31,0,26,.11,6.78-2.84,11.73-8.13,15.68-10.72,8-23.25,11.23-36.06,13.62A150.21,150.21,0,0,1,119.66,133.34Z"/></g></g></g></svg>