<svg xmlns="http://www.w3.org/2000/svg" viewBox="0 0 129.86 149.1"><defs><style>.cls-1{fill:#171518;}</style></defs><g id="Laag_2" data-name="Laag 2"><g id="Laag_1-2" data-name="Laag 1"><g id="_4tWkdK.tif" data-name="4tWkdK.tif"><path class="cls-1" d="M53.94,0h10c.26.76.87.85,1.56.87,20.62.83,46.77,16.52,52.8,47,2.49,12.58,7.51,24.09,11.57,36v4c-2.67,4.1-6.08,7.17-11.06,8.2-2.13.43-2.61,1.92-2.57,4a137.12,137.12,0,0,1-.26,14.9,15.1,15.1,0,0,1-15,13.79c-3.81.11-7.64.21-11.44,0-2.78-.19-3.33.95-3.23,3.4.16,4,.09,8,0,11.94,0,1.91.39,4.12-2.19,4.95L32.85,149C30.41,147.89,31,145.7,31,143.8c0-8.45-.07-16.9,0-25.35,0-2.13-.41-3.5-2.48-4.72C16.15,106.43,8.35,95.44,4,81.91c-1.58-4.91-2.69-10-4-15V53c1.39-.35.9-1.54,1.08-2.43,4.62-23.21,18-39,40.24-47.07C45.41,2,49.73,1.14,53.94,0ZM37.25,125c0,6.24.13,10.4,0,14.56-.11,2.53.58,3.5,3.3,3.47q18.22-.19,36.45,0c2.39,0,3.2-.66,3.07-3.07-.18-3.66.21-7.35-.11-11-.41-4.72,1.2-6.77,6.15-6.41a126.08,126.08,0,0,0,13.47,0c6.86-.22,10.33-3.84,10.39-10.63,0-4.16.38-8.37-.08-12.48-.59-5.21,1.33-7.76,6.36-9.31,8-2.47,7.79-3,5.12-11-2.78-8.3-7.44-16.09-8.26-24.9C110.33,25,81.78,2.29,52.55,7.22c-22.7,3.83-38.37,17-43.93,39.41S8.26,90,26.92,104.41C35.53,111.05,39.37,117,37.25,125Z"/><path class="cls-1" d="M49.84,54.93c-.11,3.43,1.18,5.36,4.34,5,2.25-.22,3.1.6,4,2.56,1,2.19.23,2.94-1.35,4.34-2.44,2.13-2.19,5,.61,6.61,2.14,1.23,1.63,2.57,1.18,4.1s-1.07,2.69-3.39,2.51C52,79.83,50,82.15,51.05,85.21c.94,2.78-.53,3.41-2.17,4.57s-2.67.69-4.09-.62c-2.58-2.38-5.2-1.44-6.42,1.45-.83,2-1.69,2.56-3.55,2.18s-3.36-.41-3.65-3.06c-.37-3.53-2.91-5-6-3.1-2.17,1.29-2.93.06-4-1.1s-2-2.08-.67-4.17c1.7-2.67,1.23-5.78-2.61-6.38-2.49-.39-2.35-2-2.49-3.5s-.21-3,2.2-3.64c3.38-.85,4.6-3.47,2.32-6.41-1.36-1.76-1.09-2.71.1-4.19s2.11-2.35,4.41-1.46c2.87,1.11,5.46-.05,5.55-3.57.06-2.22,1.07-3,2.89-3.16,1.57-.17,3.13-.68,4.11,1.55,1.39,3.17,4.18,3.41,6.44,1.26C45,50.32,46,49.93,47.9,51.07S51.15,53,49.84,54.93ZM49,70c.18-6.43-6.9-12.6-13.55-11.72-2.8.38-5.7,2.84-7.67,4.8-1.69,1.67-2.6,5.5-2.57,8.07a13.13,13.13,0,0,0,3.26,7.89c1.79,1.76,5.23,4.17,7.45,3.88,2.87-.38,7.44.18,8.61-1.92C46.46,77.47,52.4,74.91,49,70Z"/><path class="cls-1" d="M70.92,37.35c3.08.21,5.39-.89,5-4.67-.34-3.31,2.42-2.56,3.95-3.31,1.85-.91,2.83-.05,3.7,1.82,1.36,2.93,4,3.95,6.4,1.52,1.88-1.88,3-1.19,4.45,0S98,34.53,96.32,37.4c-1.55,2.71-.49,5.61,2.82,6.05,3.09.41,2.7,2.17,2.75,4.15s0,3.18-2.62,3.64c-3.1.55-4.6,3.27-2.82,6s-.07,3.53-1.54,4.68c-1.32,1-2.4,2.5-4.47.34-2.32-2.43-5.3-1.59-6.4,1.39-.94,2.56-2.41,2.46-4.17,2-1.94-.49-4.15-.54-3.78-3.92.34-3.14-2.23-4.69-5-3.72-3,1-3.32-.84-4.25-2.51s-1.44-3,.64-4.59c2.61-2,2.6-4.86-.11-6.67C65,42.72,66,41.37,66.75,39.73S68.1,36.12,70.92,37.35Zm4.57,12.32c-.11,1.29,5.61,7,6.48,6.56,2.27-1.24,5.36-.42,7-1.82,1.79-1.53,2.75-4.58,3.3-6.83.44-1.8-1.87-4.62-3.17-6.73s-4.52-1-6.86-1.73S78.66,41.89,76.43,43C73.12,44.58,77.48,47.81,75.49,49.67Z"/><path class="cls-1" d="M39.57,20.07c4.62,3.26,6.8,1.21,8.35-3.35.44-1.3,2.36-.54,3.61-.21S53.9,17,53.78,19c-.22,3.56,1.74,5.42,5.27,4.31,2.18-.68,2.67.39,3.22,1.85S64,28,61.61,29.25c-3.35,1.82-3.77,4.6-.79,7.19,1.64,1.41.66,2.35-.17,3.24s-1.41,3.15-3.82,1.73c-3.22-1.9-5.94-1-6.77,2.76-.54,2.46-2.06,1.76-3.35,1.59s-2.9-.17-2.85-2.5c.08-3.79-2-5.42-5.77-4.46-2.45.64-2.69-1.18-3.21-2.71-.39-1.14-1.41-2.22.65-3.17,3.62-1.67,3.7-4.44,1.21-7.16-1.26-1.36-.93-2.22,0-3.33S38,20.08,39.57,20.07ZM52.89,31.52a4.08,4.08,0,0,0-3.64-5,4.56,4.56,0,0,0-4.85,5,3.93,3.93,0,0,0,4,3.91C50.24,35.34,53.38,34.85,52.89,31.52Z"/></g></g></g></svg>